<?xml version="1.0" encoding="utf-8"?>
<!-- Generated by IcoMoon.io -->
<!DOCTYPE svg PUBLIC "-//W3C//DTD SVG 1.1//EN" "http://www.w3.org/Graphics/SVG/1.1/DTD/svg11.dtd">
<svg version="1.1" xmlns="http://www.w3.org/2000/svg" xmlns:xlink="http://www.w3.org/1999/xlink" width="32" height="32" viewBox="0 0 32 32">
<path d="M17.125 24h2.751c-0.625 3.063-3.312 5.312-6.563 5.312-3.688 0-6.625-2.937-6.625-6.625 0-3.251 2.251-5.937 5.312-6.563v2.751c-1.563 0.563-2.688 2.063-2.688 3.812 0 2.188 1.812 4 4 4 1.751 0 3.251-1.125 3.812-2.688zM13.312 12.125c0-1.875 2.085-3.532 4-2.437h0.063v0.063c0.312 0.125 0.563 0.312 0.812 0.563l1.751 1.937c1.312 1.437 3.312 2.437 5.375 2.437v2.625c-2.312 0-4.875-1.125-6.625-2.563v4.563h4c1.437 0 2.625 1.251 2.625 2.688v7.312h-2.625v-6.625h-6.688c-1.437 0-2.688-1.251-2.688-2.688v-7.875zM13.312 5.312c0-1.5 1.188-2.625 2.688-2.625s2.688 1.125 2.688 2.625-1.188 2.688-2.688 2.688-2.688-1.188-2.688-2.688z"></path>
</svg>
