<?xml version="1.0" encoding="utf-8"?>
<!-- Generated by IcoMoon.io -->
<!DOCTYPE svg PUBLIC "-//W3C//DTD SVG 1.1//EN" "http://www.w3.org/Graphics/SVG/1.1/DTD/svg11.dtd">
<svg version="1.1" xmlns="http://www.w3.org/2000/svg" xmlns:xlink="http://www.w3.org/1999/xlink" width="32" height="32" viewBox="0 0 32 32">
<path d="M6.688 16c0 2.188 1.812 4 4 4h5.312v2.688h-5.312c-3.688 0-6.688-3-6.688-6.688v-12h2.688v12zM26.625 25.625c0.251 1.251-0.688 2.375-1.937 2.375h-6v-4l1.312-5.312h-8c-2.188 0-4-1.812-4-4v-10.688h8v8h6.688c1.437 0 2.625 1.251 2.625 2.688l-2.625 9.312h1.875c1 0 1.875 0.688 2.063 1.625z"></path>
</svg>
