<?xml version="1.0" encoding="utf-8"?>
<!-- Generated by IcoMoon.io -->
<!DOCTYPE svg PUBLIC "-//W3C//DTD SVG 1.1//EN" "http://www.w3.org/Graphics/SVG/1.1/DTD/svg11.dtd">
<svg version="1.1" xmlns="http://www.w3.org/2000/svg" xmlns:xlink="http://www.w3.org/1999/xlink" width="32" height="32" viewBox="0 0 32 32">
<path d="M17.821 20.819c0 0.254 0 0.406 0 0.559 0 2.314 0.001 4.627 0 6.941 0 1.3-0.858 2.208-2.077 2.203s-2.058-0.91-2.058-2.221c0-2.285 0-4.569 0-6.854 0-0.173 0-0.345 0-0.635-0.185 0.171-0.298 0.268-0.402 0.373-1.678 1.676-3.348 3.36-5.035 5.027-1.020 1.007-2.686 0.722-3.318-0.546-0.396-0.794-0.239-1.747 0.423-2.412 1.631-1.641 3.269-3.275 4.91-4.906 0.131-0.13 0.308-0.212 0.464-0.317-0.036-0.060-0.072-0.12-0.107-0.181-0.15 0-0.299 0-0.449 0-2.328 0-4.656 0.001-6.985-0.001-1.268-0.001-2.171-0.861-2.172-2.062-0.001-1.205 0.899-2.071 2.162-2.072 2.328-0.003 4.656-0.001 6.985-0.001 0.152 0 0.305 0 0.561 0-0.185-0.199-0.287-0.315-0.395-0.424-1.635-1.637-3.272-3.272-4.906-4.91-0.912-0.915-0.943-2.17-0.082-3.030 0.853-0.851 2.11-0.806 3.030 0.113 1.637 1.635 3.272 3.271 4.909 4.907 0.101 0.101 0.207 0.197 0.41 0.39 0-0.267 0-0.429 0-0.591 0-2.314-0.001-4.627-0.001-6.941 0-1.275 0.851-2.181 2.049-2.186 1.225-0.005 2.085 0.897 2.086 2.192 0.001 2.314 0 4.627 0.001 6.941 0 0.155 0 0.309 0 0.563 0.18-0.161 0.287-0.247 0.384-0.344 1.668-1.666 3.329-3.338 5.003-4.998 1.153-1.142 3.030-0.71 3.48 0.808 0.242 0.816 0.044 1.542-0.576 2.156-1.653 1.639-3.294 3.291-4.943 4.934-0.102 0.102-0.229 0.18-0.344 0.269 0.017 0.042 0.034 0.085 0.052 0.127 0.146 0.008 0.291 0.023 0.437 0.023 2.328 0.001 4.656 0 6.985 0.001 1.3 0.001 2.193 0.851 2.194 2.085 0.001 1.19-0.914 2.051-2.184 2.051-2.314 0.001-4.627 0-6.941 0-0.156 0-0.312 0-0.563 0 0.142 0.165 0.216 0.262 0.301 0.348 1.696 1.7 3.404 3.387 5.086 5.1 1.111 1.131 0.617 3.001-0.898 3.43-0.805 0.228-1.517 0.021-2.116-0.582-1.652-1.661-3.311-3.315-4.968-4.971-0.1-0.1-0.206-0.188-0.392-0.356z"></path>
</svg>
