<?xml version="1.0" encoding="utf-8"?>
<!-- Generated by IcoMoon.io -->
<!DOCTYPE svg PUBLIC "-//W3C//DTD SVG 1.1//EN" "http://www.w3.org/Graphics/SVG/1.1/DTD/svg11.dtd">
<svg version="1.1" xmlns="http://www.w3.org/2000/svg" xmlns:xlink="http://www.w3.org/1999/xlink" width="32" height="32" viewBox="0 0 32 32">
<path d="M10.667 2.667h10.667l2.667 4h4q1.656 0 2.828 1.193t1.172 2.849v14.645q0 1.656-1.172 2.817t-2.828 1.161h-24q-1.656 0-2.828-1.172t-1.172-2.828v-14.645q0-1.656 1.172-2.839t2.828-1.183h4zM16 10.667q1.355 0 2.588 0.531t2.125 1.421 1.421 2.125 0.531 2.588-0.531 2.588-1.421 2.125-2.125 1.421-2.588 0.531-2.588-0.531-2.125-1.421-1.421-2.125-0.531-2.588 0.531-2.588 1.421-2.125 2.125-1.421 2.588-0.531zM16 13.333q-1.656 0-2.828 1.172t-1.172 2.828 1.172 2.828 2.828 1.172 2.828-1.172 1.172-2.828-1.172-2.828-2.828-1.172zM22.573 9.333l-2.615-4h-7.864l-2.667 4h-5.427q-0.552 0-0.943 0.396t-0.391 0.959v14.645q0 0.552 0.391 0.943t0.943 0.391h24q0.563 0 0.948-0.38t0.385-0.932v-14.645q0-0.563-0.396-0.969t-0.937-0.407h-5.427z"></path>
</svg>
