<?xml version="1.0" encoding="utf-8"?>
<!-- Generated by IcoMoon.io -->
<!DOCTYPE svg PUBLIC "-//W3C//DTD SVG 1.1//EN" "http://www.w3.org/Graphics/SVG/1.1/DTD/svg11.dtd">
<svg version="1.1" xmlns="http://www.w3.org/2000/svg" xmlns:xlink="http://www.w3.org/1999/xlink" width="32" height="32" viewBox="0 0 32 32">
<path d="M20 2.667q2.437 0 4.661 0.953t3.828 2.557 2.557 3.828 0.953 4.661q0 2.656-1.093 5.021t-3.021 4.036-4.375 2.421l0.656-0.645q0.563-0.573 0.875-1.333 0.292-0.708 0.292-1.541 0-0.208-0.011-0.292 1.855-1.292 2.932-3.307t1.079-4.36q0-1.896-0.74-3.625t-1.989-2.979-2.979-1.989-3.625-0.74q-1.729 0-3.328 0.62t-2.812 1.683-2.031 2.541-1.057 3.156h-2.771q-2.208 0-3.771 1.563t-1.563 3.771q0 1.208 0.473 2.24t1.245 1.693 1.713 1.031 1.901 0.369h1.563q0.364 0.916 0.937 1.5l1.177 1.167h-3.677q-2.177 0-4.016-1.073t-2.912-2.912-1.073-4.016 1.073-4.016 2.912-2.912 4.016-1.073h0.688q0.823-2.323 2.479-4.131t3.964-2.839 4.869-1.031zM17.333 13.333q0.552 0 0.943 0.391t0.391 0.943v8.781l1.719-1.729q0.385-0.385 0.948-0.385 0.573 0 0.953 0.38t0.38 0.953q0 0.563-0.385 0.948l-4 4q-0.385 0.385-0.948 0.385t-0.948-0.385l-4-4q-0.385-0.407-0.385-0.948 0-0.552 0.391-0.943t0.943-0.391q0.563 0 0.948 0.385l1.719 1.729v-8.781q0-0.552 0.391-0.943t0.943-0.391z"></path>
</svg>
