<?xml version="1.0" encoding="utf-8"?>
<!-- Generated by IcoMoon.io -->
<!DOCTYPE svg PUBLIC "-//W3C//DTD SVG 1.1//EN" "http://www.w3.org/Graphics/SVG/1.1/DTD/svg11.dtd">
<svg version="1.1" xmlns="http://www.w3.org/2000/svg" xmlns:xlink="http://www.w3.org/1999/xlink" width="32" height="32" viewBox="0 0 32 32">
<path d="M16 1.333q0.375 0 0.563 0.011 1.937 0.073 3.765 0.64t3.38 1.527 2.849 2.307 2.197 2.932 1.407 3.443 0.505 3.807-0.505 3.807-1.407 3.443-2.197 2.932-2.849 2.307-3.38 1.527-3.765 0.64q-0.188 0.011-0.563 0.011t-0.563-0.011q-1.937-0.073-3.765-0.64t-3.38-1.527-2.849-2.307-2.197-2.932-1.407-3.443-0.505-3.807 0.505-3.807 1.407-3.443 2.197-2.932 2.849-2.307 3.38-1.527 3.765-0.64q0.188-0.011 0.563-0.011zM9.385 17.333h-5.312q0.416 3.719 2.864 6.531t6.021 3.751q-1.355-2.052-2.36-4.651t-1.213-5.631zM19.948 17.333h-7.896q0.104 1.333 0.432 2.667t0.735 2.36 0.937 2.027 0.959 1.645 0.885 1.24q0.459-0.593 0.885-1.245t0.959-1.651 0.937-2.027 0.735-2.355 0.432-2.661zM12.959 4.385q-3.573 0.937-6.021 3.749t-2.864 6.531h5.312q0.364-5.437 3.573-10.281zM27.927 17.333h-5.303q-0.385 5.448-3.584 10.281 3.573-0.937 6.021-3.751t2.864-6.531zM16 4.729q-0.459 0.593-0.88 1.245t-0.959 1.651-0.943 2.027-0.735 2.355-0.432 2.661h7.896q-0.104-1.333-0.432-2.667t-0.735-2.36-0.937-2.027-0.959-1.645-0.885-1.24zM19.041 4.385q3.197 4.833 3.584 10.281h5.303q-0.416-3.719-2.864-6.531t-6.021-3.751z"></path>
</svg>
