<?xml version="1.0" encoding="utf-8"?>
<!-- Generated by IcoMoon.io -->
<!DOCTYPE svg PUBLIC "-//W3C//DTD SVG 1.1//EN" "http://www.w3.org/Graphics/SVG/1.1/DTD/svg11.dtd">
<svg version="1.1" xmlns="http://www.w3.org/2000/svg" xmlns:xlink="http://www.w3.org/1999/xlink" width="32" height="32" viewBox="0 0 32 32">
<path d="M23.541 2.667q2.177 0 4.016 1.073t2.912 2.912 1.073 4.016q0 1.563-0.599 3.036t-1.745 2.62l-13.197 13.197-13.197-13.197q-1.145-1.145-1.745-2.62t-0.599-3.036q0-2.177 1.073-4.016t2.912-2.912 4.016-1.073q1.573 0 3.036 0.593t2.62 1.751l1.885 1.885 1.885-1.885q1.145-1.145 2.62-1.745t3.036-0.599zM23.541 5.333q-1.041 0-2.021 0.396t-1.749 1.167l-3.771 3.771-3.771-3.771q-0.771-0.771-1.751-1.167t-2.021-0.396q-1.459 0-2.683 0.713t-1.937 1.937-0.713 2.683q0 1.041 0.396 2.021t1.167 1.751l11.312 11.312 11.312-11.312q0.771-0.771 1.167-1.751t0.396-2.021q0-1.459-0.713-2.683t-1.937-1.937-2.683-0.713z"></path>
</svg>
