<?xml version="1.0" encoding="utf-8"?>
<!-- Generated by IcoMoon.io -->
<!DOCTYPE svg PUBLIC "-//W3C//DTD SVG 1.1//EN" "http://www.w3.org/Graphics/SVG/1.1/DTD/svg11.dtd">
<svg version="1.1" xmlns="http://www.w3.org/2000/svg" xmlns:xlink="http://www.w3.org/1999/xlink" width="32" height="32" viewBox="0 0 32 32">
<path d="M22.667 1.333q1.573 0 3.036 0.593t2.62 1.749 1.751 2.62 0.593 3.036q0 1.563-0.599 3.036t-1.745 2.62l-4 4q-0.115 0.115-0.344 0.323-1.115 0.989-2.489 1.505t-2.823 0.516q-1.823 0-3.448-0.781-1.219-0.573-2.208-1.563t-1.563-2.208q0.781-0.781 1.885-0.781 0.385 0 0.781 0.115 0.677 1.093 1.771 1.771 1.281 0.781 2.781 0.781 1.041 0 2.021-0.396t1.751-1.167l4-4q0.771-0.771 1.167-1.751t0.396-2.021-0.396-2.021-1.167-1.751-1.751-1.167-2.021-0.396-2.021 0.396-1.751 1.167l-2.803 2.803q-1.333-0.364-2.76-0.364-0.229 0-0.645 0.021 0.208-0.229 0.323-0.344l4-4q1.145-1.145 2.62-1.745t3.036-0.599zM13.333 10.667q1.823 0 3.448 0.781 1.219 0.573 2.208 1.563t1.563 2.208q-0.781 0.781-1.885 0.781-0.385 0-0.781-0.115-0.677-1.093-1.771-1.771-1.281-0.781-2.781-0.781-1.041 0-2.021 0.396t-1.751 1.167l-4 4q-0.771 0.771-1.167 1.751t-0.396 2.021 0.396 2.021 1.167 1.751 1.751 1.167 2.021 0.396 2.021-0.396 1.751-1.167l2.803-2.803q1.333 0.364 2.76 0.364 0.229 0 0.645-0.021-0.208 0.229-0.323 0.344l-4 4q-1.156 1.156-2.62 1.751t-3.036 0.593q-1.563 0-3.036-0.599t-2.62-1.745q-1.156-1.156-1.751-2.62t-0.593-3.036 0.593-3.036 1.751-2.62l4-4q0.115-0.115 0.344-0.323 1.115-0.989 2.489-1.505t2.823-0.516z"></path>
</svg>
