<?xml version="1.0" encoding="utf-8"?>
<!-- Generated by IcoMoon.io -->
<!DOCTYPE svg PUBLIC "-//W3C//DTD SVG 1.1//EN" "http://www.w3.org/Graphics/SVG/1.1/DTD/svg11.dtd">
<svg version="1.1" xmlns="http://www.w3.org/2000/svg" xmlns:xlink="http://www.w3.org/1999/xlink" width="32" height="32" viewBox="0 0 32 32">
<path d="M21.312 22.688v-8c0-3.312-2-6-5.312-6s-5.312 2.688-5.312 6v8h10.625zM24 21.312l2.688 2.688v1.312h-21.375v-1.312l2.688-2.688v-6.625c0-4.125 2.188-7.5 6-8.437v-0.937c0-1.125 0.875-2 2-2s2 0.875 2 2v0.937c3.812 0.937 6 4.375 6 8.437v6.625zM16 29.312c-1.437 0-2.688-1.188-2.688-2.625h5.375c0 1.437-1.251 2.625-2.688 2.625z"></path>
</svg>
