<?xml version="1.0" encoding="utf-8"?>
<!-- Generated by IcoMoon.io -->
<!DOCTYPE svg PUBLIC "-//W3C//DTD SVG 1.1//EN" "http://www.w3.org/Graphics/SVG/1.1/DTD/svg11.dtd">
<svg version="1.1" xmlns="http://www.w3.org/2000/svg" xmlns:xlink="http://www.w3.org/1999/xlink" width="32" height="32" viewBox="0 0 32 32">
<path d="M24 19.563l-11.937-12.563c0.312-0.125 0.625-0.312 0.937-0.437h0.063l0.375-0.188c0.188-0.063 0.375-0.063 0.563-0.125v-0.937c0-1.125 0.875-2 2-2s2 0.875 2 2v0.937c3.812 0.937 6 4.312 6 8.437v4.875zM16 29.312c-1.5 0-2.688-1.125-2.688-2.625h5.375c0 1.5-1.188 2.625-2.688 2.625zM10.437 8.188c5.851 6.045 11.729 12.063 17.563 18.125l-1.688 1.688-2.688-2.688h-18.312v-1.312l2.688-2.688v-6.688c0-1.688 0.375-3.251 1.063-4.563l-3.751-3.688 1.688-1.751z"></path>
</svg>
