<?xml version="1.0" encoding="utf-8"?>
<!-- Generated by IcoMoon.io -->
<!DOCTYPE svg PUBLIC "-//W3C//DTD SVG 1.1//EN" "http://www.w3.org/Graphics/SVG/1.1/DTD/svg11.dtd">
<svg version="1.1" xmlns="http://www.w3.org/2000/svg" xmlns:xlink="http://www.w3.org/1999/xlink" width="32" height="32" viewBox="0 0 32 32">
<path d="M16 29.312c-1.5 0-2.688-1.188-2.688-2.625h5.312c0 1.552-1.163 2.625-2.625 2.625zM24 14.688v6.625l2.688 2.688v1.312h-21.375v-1.312l2.688-2.688v-6.625c0-4.125 2.188-7.5 6-8.437v-0.937c0-1.125 0.875-2 2-2s2 0.875 2 2v0.937c3.812 0.937 6 4.375 6 8.437zM26.625 14c-0.188-3.563-2-6.625-4.688-8.563l1.875-1.875c3.188 2.437 5.312 6.188 5.5 10.437h-2.688zM10.125 5.437c-2.751 1.937-4.563 5-4.751 8.563h-2.688c0.188-4.251 2.312-8 5.5-10.437z"></path>
</svg>
