<?xml version="1.0" encoding="utf-8"?>
<!-- Generated by IcoMoon.io -->
<!DOCTYPE svg PUBLIC "-//W3C//DTD SVG 1.1//EN" "http://www.w3.org/Graphics/SVG/1.1/DTD/svg11.dtd">
<svg version="1.1" xmlns="http://www.w3.org/2000/svg" xmlns:xlink="http://www.w3.org/1999/xlink" width="32" height="32" viewBox="0 0 32 32">
<path d="M16 1.396q0.563 0 0.948 0.385l6.667 6.667q0.385 0.385 0.385 0.948 0 0.573-0.38 0.953t-0.953 0.38q-0.563 0-0.948-0.385l-4.385-4.396v15.448q0 0.552-0.391 0.943t-0.943 0.391-0.943-0.391-0.391-0.943v-15.448l-4.385 4.396q-0.407 0.385-0.948 0.385-0.552 0-0.943-0.391t-0.391-0.943q0-0.541 0.385-0.948l6.667-6.667q0.385-0.385 0.948-0.385zM29.333 20.063q0.552 0 0.943 0.391t0.391 0.943v5.333q0 1.667-1.156 2.823-1.177 1.177-2.812 1.177h-21.364q-1.636 0-2.833-1.167-1.167-1.197-1.167-2.833v-5.333q0-0.552 0.391-0.943t0.943-0.391 0.943 0.391 0.391 0.943v5.333q0 0.552 0.391 0.943t0.943 0.391h21.364q0.541 0 0.921-0.391t0.38-0.943v-5.333q0-0.552 0.391-0.943t0.943-0.391z"></path>
</svg>
