<?xml version="1.0" encoding="utf-8"?>
<!-- Generated by IcoMoon.io -->
<!DOCTYPE svg PUBLIC "-//W3C//DTD SVG 1.1//EN" "http://www.w3.org/Graphics/SVG/1.1/DTD/svg11.dtd">
<svg version="1.1" xmlns="http://www.w3.org/2000/svg" xmlns:xlink="http://www.w3.org/1999/xlink" width="32" height="32" viewBox="0 0 32 32">
<path d="M21.063 0q1.303 0 2.5 0.489 1.251 0.5 2.208 1.459 0.969 0.979 1.459 2.197 0.479 1.177 0.479 2.5t-0.479 2.5q-0.489 1.219-1.459 2.197l-12.271 12.271q-0.563 0.563-1.333 0.885-0.751 0.292-1.5 0.292t-1.5-0.292q-0.771-0.323-1.333-0.885-0.584-0.584-0.875-1.323-0.292-0.708-0.292-1.5 0-0.803 0.292-1.511 0.292-0.729 0.875-1.323l11.323-11.312q0.396-0.396 0.948-0.396 0.541 0 0.937 0.396t0.396 0.937q0 0.552-0.396 0.948l-11.323 11.312q-0.385 0.385-0.385 0.948 0 0.552 0.385 0.937 0.416 0.396 0.948 0.396t0.948-0.396l12.271-12.271q1.156-1.156 1.156-2.812t-1.156-2.812q-1.188-1.167-2.823-1.167-1.645 0-2.812 1.167l-12.303 12.24q-0.959 0.959-1.459 2.208-0.489 1.197-0.489 2.511 0 1.292 0.489 2.511 0.5 1.24 1.459 2.197 0.989 0.979 2.208 1.469t2.511 0.489 2.511-0.489 2.208-1.469l12.249-12.251q0.396-0.396 0.948-0.396 0.541 0 0.937 0.396t0.396 0.937q0 0.552-0.396 0.948l-12.251 12.251q-1.344 1.344-3.093 2.052-1.667 0.688-3.511 0.688-1.833 0-3.511-0.688-1.751-0.708-3.093-2.052-1.333-1.333-2.041-3.084-0.688-1.688-0.688-3.511 0-1.833 0.688-3.511 0.697-1.729 2.041-3.093h0.011l12.292-12.24q0.959-0.959 2.197-1.459 1.219-0.489 2.5-0.489z"></path>
</svg>
