<?xml version="1.0" encoding="utf-8"?>
<!-- Generated by IcoMoon.io -->
<!DOCTYPE svg PUBLIC "-//W3C//DTD SVG 1.1//EN" "http://www.w3.org/Graphics/SVG/1.1/DTD/svg11.dtd">
<svg version="1.1" xmlns="http://www.w3.org/2000/svg" xmlns:xlink="http://www.w3.org/1999/xlink" width="32" height="32" viewBox="0 0 32 32">
<path d="M14.667 2.667q2.593 0 5.021 0.979 2.489 1.011 4.407 2.927 0.011 0.011 3.907 3.823v-5.063q0-0.552 0.391-0.943t0.943-0.391 0.943 0.391 0.391 0.943v8q0 0.552-0.391 0.943t-0.943 0.391h-8q-0.552 0-0.943-0.391t-0.391-0.943 0.391-0.943 0.943-0.391h4.5q-2.896-2.812-3.625-3.541-1.552-1.552-3.531-2.344-1.907-0.781-4.011-0.781t-4.011 0.781q-1.989 0.792-3.531 2.344-1.541 1.541-2.344 3.531-0.781 1.907-0.781 4.011t0.781 4.011q0.803 1.989 2.344 3.531 1.541 1.552 3.531 2.344 1.907 0.781 4.011 0.781t4.011-0.781q1.979-0.792 3.531-2.344 1.729-1.729 2.521-3.989 0.177-0.521 0.677-0.755t1.021-0.057q0.521 0.188 0.76 0.688t0.052 1.021q-0.479 1.364-1.297 2.667t-1.849 2.312q-1.916 1.916-4.407 2.927-2.427 0.979-5.021 0.979t-5.021-0.979q-2.489-1.011-4.407-2.927t-2.927-4.407q-0.979-2.427-0.979-5.021t0.979-5.021q1.011-2.489 2.927-4.407t4.407-2.927q2.427-0.979 5.021-0.979z"></path>
</svg>
