<?xml version="1.0" encoding="utf-8"?>
<!-- Generated by IcoMoon.io -->
<!DOCTYPE svg PUBLIC "-//W3C//DTD SVG 1.1//EN" "http://www.w3.org/Graphics/SVG/1.1/DTD/svg11.dtd">
<svg version="1.1" xmlns="http://www.w3.org/2000/svg" xmlns:xlink="http://www.w3.org/1999/xlink" width="32" height="32" viewBox="0 0 32 32">
<path d="M16 5.333q4.093 0 7.969 1.437t7.031 4.229q0.448 0.385 0.448 1 0 0.521-0.333 0.885l-0.063 0.063q-0.385 0.385-0.937 0.385-0.521 0-0.885-0.333-2.781-2.459-6.203-3.729t-7.027-1.271-7.027 1.271-6.203 3.729q-0.364 0.333-0.885 0.333-0.615 0-1-0.448-0.333-0.364-0.333-0.885 0-0.615 0.448-1 3.167-2.792 7.036-4.229t7.964-1.437zM16.011 21.333q1.812 0 3.364 0.916 0.312 0.188 0.489 0.495t0.177 0.661-0.188 0.667q-0.093 0.156-0.208 0.271-0.385 0.385-0.948 0.385-0.375 0-0.667-0.177-0.948-0.552-2.021-0.552-1.084 0-2.031 0.552-0.333 0.188-0.677 0.188-0.76 0-1.156-0.656-0.188-0.312-0.188-0.667 0-0.76 0.656-1.156 1.573-0.927 3.396-0.927zM16 13.344q2.521 0 4.907 0.833t4.375 2.469q0.489 0.396 0.489 1.031 0 0.479-0.303 0.844-0.063 0.084-0.084 0.104-0.385 0.385-0.937 0.385-0.489 0-0.855-0.303-1.625-1.333-3.584-2.021t-4.011-0.688-4.011 0.688-3.584 2.021q-0.364 0.303-0.844 0.303-0.636 0-1.031-0.489-0.303-0.364-0.303-0.844 0-0.636 0.489-1.031 1.979-1.636 4.375-2.469t4.907-0.833z"></path>
</svg>
