<?xml version="1.0" encoding="utf-8"?>
<!-- Generated by IcoMoon.io -->
<!DOCTYPE svg PUBLIC "-//W3C//DTD SVG 1.1//EN" "http://www.w3.org/Graphics/SVG/1.1/DTD/svg11.dtd">
<svg version="1.1" xmlns="http://www.w3.org/2000/svg" xmlns:xlink="http://www.w3.org/1999/xlink" width="32" height="32" viewBox="0 0 32 32">
<path d="M1.333 1.333h15.084l13.084 13.073q1.167 1.167 1.167 2.823 0 1.667-1.167 2.833l-9.437 9.437q-1.167 1.167-2.823 1.167-1.667 0-2.833-1.167l-13.073-13.084v-15.084zM27.615 16.292l-12.303-12.292h-11.312v11.312l12.292 12.303q0.396 0.385 0.948 0.385t0.937-0.385l9.437-9.437q0.385-0.385 0.385-0.937t-0.385-0.948zM11.333 8q1.385 0 2.36 0.973t0.973 2.36-0.973 2.36-2.36 0.973-2.36-0.973-0.973-2.36 0.973-2.36 2.36-0.973zM11.333 10.667q-0.271 0-0.469 0.197t-0.197 0.469 0.197 0.469 0.469 0.197 0.469-0.197 0.197-0.469-0.197-0.469-0.469-0.197z"></path>
</svg>
